<svg width="228" height="129" viewBox="0 0 228 129" fill="none" xmlns="http://www.w3.org/2000/svg">
<path d="M12.6428 128.237C12.6428 128.237 35.0777 79.6494 53.6441 79.4986C72.2106 79.3477 95.5722 111.836 100.68 128.237" fill="white"/>
<path d="M12.6428 128.237C12.6428 128.237 35.0777 79.6494 53.6441 79.4986C72.2106 79.3477 95.5722 111.836 100.68 128.237" stroke="#0D274D" stroke-width="0.538782" stroke-miterlimit="10"/>
<path d="M69.8493 127.891C69.8493 127.891 64.4614 87.935 55.0327 79.627C55.0004 79.6485 80.4417 81.2864 100.948 128.344" fill="#ABB3C0"/>
<path d="M69.8493 127.891C69.8493 127.891 64.4614 87.935 55.0327 79.627C55.0004 79.6485 80.4417 81.2864 100.948 128.344" stroke="#0D274D" stroke-width="0.538782" stroke-linecap="round" stroke-linejoin="round"/>
<path d="M74.7951 71.0605C89.0304 71.0605 100.57 59.5205 100.57 45.2852C100.57 31.0498 89.0304 19.5098 74.7951 19.5098C60.5598 19.5098 49.0198 31.0498 49.0198 45.2852C49.0198 59.5205 60.5598 71.0605 74.7951 71.0605Z" fill="#0D274D" stroke="#0D274D" stroke-width="0.538782" stroke-miterlimit="10"/>
<path d="M94.6887 128.397C94.6887 128.397 129.688 61.0493 153.966 60.9416C178.243 60.8338 204.331 118.063 209.805 128.397" fill="white"/>
<path d="M94.6887 128.397C94.6887 128.397 129.688 61.0493 153.966 60.9416C178.243 60.8338 204.331 118.063 209.805 128.397" stroke="#0D274D" stroke-width="0.538782" stroke-miterlimit="10"/>
<path d="M62.7395 128.236C62.7395 128.236 89.5062 38.9597 108.073 38.8088C126.639 38.658 145.669 111.835 150.777 128.236" fill="white"/>
<path d="M62.7395 128.236C62.7395 128.236 89.5062 38.9597 108.073 38.8088C126.639 38.658 145.669 111.835 150.777 128.236" stroke="#0D274D" stroke-width="0.538782" stroke-miterlimit="10"/>
<path d="M112.551 128.002C112.551 128.002 121.691 74.7893 108.825 38.874C108.825 38.874 126.058 34.5874 150.993 128.001" fill="#ABB3C0"/>
<path d="M112.551 128.002C112.551 128.002 121.691 74.7893 108.825 38.874C108.825 38.874 126.058 34.5874 150.993 128.001" stroke="#0D274D" stroke-width="0.538782" stroke-linecap="round" stroke-linejoin="round"/>
<path d="M171.895 128.001C171.895 128.001 165.828 72.5264 154.611 60.9534C154.611 60.9534 178.188 58.2487 208.866 128.247" fill="#ABB3C0"/>
<path d="M171.895 128.001C171.895 128.001 165.828 72.5264 154.611 60.9534C154.611 60.9534 178.188 58.2487 208.866 128.247" stroke="#0D274D" stroke-width="0.538782" stroke-linecap="round" stroke-linejoin="round"/>
<path d="M206.572 111.986C206.572 112.45 206.69 112.902 206.927 113.301C207.563 114.357 207.887 115.574 207.843 116.814C207.811 117.956 207.466 119.077 206.852 120.046C205.861 121.652 204.212 122.74 202.348 123.042C202.165 123.064 201.992 123.085 201.809 123.096C198.232 123.322 195.15 120.607 194.913 117.029C194.913 116.9 194.902 116.771 194.902 116.641C194.902 116.555 194.902 116.458 194.913 116.372C194.945 115.294 195.257 114.249 195.818 113.322C196.497 112.191 196.184 110.725 195.096 109.971C190.085 106.501 188.835 99.6265 192.305 94.6158C195.775 89.6052 202.65 88.3552 207.66 91.825C212.671 95.2947 213.921 102.17 210.451 107.18C209.697 108.269 208.749 109.217 207.66 109.971C206.992 110.434 206.583 111.189 206.572 112.008V111.986Z" fill="#0D274D" stroke="#0D274D" stroke-width="0.538782" stroke-miterlimit="10"/>
<path d="M214.741 120.929C216.077 123.148 215.355 126.036 213.135 127.372C210.916 128.709 208.028 127.987 206.692 125.767C205.797 124.28 205.797 122.426 206.692 120.939C207.176 120.11 206.95 119.054 206.164 118.493C202.521 115.972 201.616 110.983 204.138 107.341C206.659 103.698 211.648 102.793 215.29 105.315C218.933 107.836 219.838 112.825 217.316 116.468C216.767 117.254 216.088 117.944 215.29 118.493C214.493 119.032 214.256 120.099 214.752 120.918L214.741 120.929Z" fill="white" stroke="#0D274D" stroke-width="0.538782" stroke-miterlimit="10"/>
<path d="M30.1184 120.929C31.4546 123.148 30.7326 126.036 28.5128 127.372C26.293 128.709 23.4052 127.987 22.069 125.767C21.1746 124.28 21.1746 122.426 22.069 120.939C22.5539 120.11 22.3276 119.054 21.541 118.493C17.8988 115.972 16.9937 110.983 19.5152 107.341C22.0367 103.698 27.0258 102.793 30.6679 105.315C34.3101 107.836 35.2153 112.825 32.6938 116.468C32.1442 117.254 31.4653 117.944 30.6679 118.493C29.8705 119.032 29.6335 120.099 30.1292 120.918L30.1184 120.929Z" fill="white" stroke="#0D274D" stroke-width="0.538782" stroke-miterlimit="10"/>
<path d="M202.357 123.031V128.085H198.726L199.415 122.783C200.191 123.031 200.999 123.128 201.808 123.074C201.991 123.063 202.163 123.053 202.346 123.02L202.357 123.031Z" fill="white" stroke="#0D274D" stroke-width="0.538782" stroke-miterlimit="10"/>
<path d="M123.931 110.886C123.931 111.393 124.061 111.878 124.319 112.309C125.009 113.462 125.354 114.776 125.311 116.123C125.268 117.362 124.901 118.58 124.233 119.625C123.156 121.371 121.367 122.556 119.341 122.879C119.147 122.912 118.953 122.923 118.759 122.933C114.869 123.181 111.529 120.229 111.281 116.349C111.281 116.209 111.27 116.069 111.27 115.929C111.27 115.832 111.27 115.735 111.281 115.638C111.324 114.474 111.658 113.332 112.261 112.33C112.994 111.102 112.66 109.507 111.475 108.688C106.033 104.916 104.675 97.4597 108.436 92.0073C112.208 86.5656 119.664 85.2078 125.117 88.9685C130.558 92.74 131.916 100.197 128.155 105.649C127.337 106.835 126.302 107.869 125.117 108.688C124.395 109.194 123.953 110.013 123.931 110.897V110.886Z" fill="white" stroke="#0D274D" stroke-width="0.538782" stroke-miterlimit="10"/>
<path d="M119.279 123.031V128.085H115.648L116.338 122.783C117.113 123.031 117.922 123.128 118.73 123.074C118.913 123.063 119.085 123.053 119.269 123.02L119.279 123.031Z" fill="white" stroke="#0D274D" stroke-width="0.538782" stroke-miterlimit="10"/>
<path d="M227.702 128.268H140.57H0.00195312" stroke="#0D274D" stroke-width="0.538782" stroke-miterlimit="10"/>
<path d="M175.193 9.68164H209.298C212.789 9.68164 215.623 12.5156 215.623 16.0069C215.623 19.4982 212.789 22.3322 209.298 22.3322H175.193C171.702 22.3322 168.868 19.4982 168.868 16.0069C168.868 12.5156 171.702 9.68164 175.193 9.68164Z" fill="white" stroke="#0D274D" stroke-width="0.538782" stroke-miterlimit="10"/>
<path d="M152.154 1.20117H186.259C189.751 1.20117 192.585 4.03516 192.585 7.52647C192.585 11.0178 189.751 13.8518 186.259 13.8518H152.154C148.663 13.8518 145.829 11.0178 145.829 7.52647C145.829 4.03516 148.663 1.20117 152.154 1.20117Z" fill="white" stroke="#0D274D" stroke-width="0.538782" stroke-miterlimit="10"/>
<path d="M36.2741 128.15C40.434 128.15 43.8063 124.778 43.8063 120.618C43.8063 116.458 40.434 113.086 36.2741 113.086C32.1142 113.086 28.7419 116.458 28.7419 120.618C28.7419 124.778 32.1142 128.15 36.2741 128.15Z" fill="#0D274D" stroke="#0D274D" stroke-width="0.538782" stroke-miterlimit="10"/>
<path d="M28.7327 33.4844H57.967C60.9626 33.4844 63.3979 35.9089 63.3979 38.9153C63.3979 41.9109 60.9734 44.3462 57.967 44.3462H28.7327C25.7371 44.3462 23.3018 41.9217 23.3018 38.9153C23.3018 35.9196 25.7263 33.4844 28.7327 33.4844Z" fill="white" stroke="#0D274D" stroke-width="0.538782" stroke-miterlimit="10"/>
</svg>
