<svg width="228" height="128" viewBox="0 0 228 128" fill="none" xmlns="http://www.w3.org/2000/svg">
<path d="M12.6426 127.58C12.6426 127.58 35.0775 78.9922 53.6439 78.8413C72.2103 78.6905 95.5719 111.179 100.68 127.58" fill="white"/>
<path d="M12.6426 127.58C12.6426 127.58 35.0775 78.9922 53.6439 78.8413C72.2103 78.6905 95.5719 111.179 100.68 127.58" stroke="#0D274D" stroke-width="0.538782" stroke-miterlimit="10"/>
<path d="M69.8488 127.235C69.8488 127.235 64.4609 87.2787 55.0323 78.9707C54.9999 78.9923 80.4412 80.6301 100.947 127.687" fill="#ABB3C0"/>
<path d="M69.8488 127.235C69.8488 127.235 64.4609 87.2787 55.0323 78.9707C54.9999 78.9923 80.4412 80.6301 100.947 127.687" stroke="#0D274D" stroke-width="0.538782" stroke-linecap="round" stroke-linejoin="round"/>
<path d="M74.7949 70.4042C89.0302 70.4042 100.57 58.8642 100.57 44.6289C100.57 30.3936 89.0302 18.8535 74.7949 18.8535C60.5595 18.8535 49.0195 30.3936 49.0195 44.6289C49.0195 58.8642 60.5595 70.4042 74.7949 70.4042Z" fill="#0D274D" stroke="#0D274D" stroke-width="0.538782" stroke-miterlimit="10"/>
<path d="M94.6885 127.742C94.6885 127.742 129.688 60.394 153.965 60.2863C178.243 60.1785 204.331 117.408 209.805 127.742" fill="white"/>
<path d="M94.6885 127.742C94.6885 127.742 129.688 60.394 153.965 60.2863C178.243 60.1785 204.331 117.408 209.805 127.742" stroke="#0D274D" stroke-width="0.538782" stroke-miterlimit="10"/>
<path d="M62.7393 127.58C62.7393 127.58 89.506 38.3034 108.072 38.1526C126.639 38.0017 145.669 111.179 150.776 127.58" fill="white"/>
<path d="M62.7393 127.58C62.7393 127.58 89.506 38.3034 108.072 38.1526C126.639 38.0017 145.669 111.179 150.776 127.58" stroke="#0D274D" stroke-width="0.538782" stroke-miterlimit="10"/>
<path d="M112.551 127.345C112.551 127.345 121.691 74.132 108.825 38.2168C108.825 38.2168 126.058 33.9302 150.993 127.344" fill="#ABB3C0"/>
<path d="M112.551 127.345C112.551 127.345 121.691 74.132 108.825 38.2168C108.825 38.2168 126.058 33.9302 150.993 127.344" stroke="#0D274D" stroke-width="0.538782" stroke-linecap="round" stroke-linejoin="round"/>
<path d="M171.894 127.344C171.894 127.344 165.828 71.8692 154.61 60.2961C154.61 60.2961 178.187 57.5915 208.866 127.59" fill="#ABB3C0"/>
<path d="M171.894 127.344C171.894 127.344 165.828 71.8692 154.61 60.2961C154.61 60.2961 178.187 57.5915 208.866 127.59" stroke="#0D274D" stroke-width="0.538782" stroke-linecap="round" stroke-linejoin="round"/>
<path d="M206.572 111.33C206.572 111.793 206.691 112.246 206.928 112.645C207.564 113.701 207.887 114.918 207.844 116.157C207.812 117.3 207.467 118.42 206.853 119.39C205.861 120.996 204.213 122.084 202.348 122.386C202.165 122.407 201.993 122.429 201.81 122.44C198.232 122.666 195.15 119.95 194.913 116.373C194.913 116.244 194.902 116.114 194.902 115.985C194.902 115.899 194.902 115.802 194.913 115.716C194.945 114.638 195.258 113.593 195.818 112.666C196.497 111.535 196.185 110.069 195.096 109.315C190.086 105.845 188.836 98.9703 192.305 93.9596C195.775 88.9489 202.65 87.699 207.661 91.1687C212.671 94.6385 213.921 101.513 210.452 106.524C209.697 107.612 208.749 108.561 207.661 109.315C206.993 109.778 206.583 110.533 206.572 111.351V111.33Z" fill="#0D274D" stroke="#0D274D" stroke-width="0.538782" stroke-miterlimit="10"/>
<path d="M214.741 120.273C216.077 122.493 215.355 125.381 213.136 126.717C210.916 128.053 208.028 127.331 206.692 125.112C205.797 123.625 205.797 121.771 206.692 120.284C207.177 119.454 206.95 118.398 206.164 117.838C202.522 115.317 201.616 110.327 204.138 106.685C206.659 103.043 211.649 102.138 215.291 104.659C218.933 107.181 219.838 112.17 217.317 115.812C216.767 116.599 216.088 117.289 215.291 117.838C214.493 118.377 214.256 119.444 214.752 120.263L214.741 120.273Z" fill="white" stroke="#0D274D" stroke-width="0.538782" stroke-miterlimit="10"/>
<path d="M30.1181 120.273C31.4543 122.493 30.7324 125.381 28.5126 126.717C26.2928 128.053 23.4049 127.331 22.0687 125.112C21.1744 123.625 21.1744 121.771 22.0687 120.284C22.5536 119.454 22.3273 118.398 21.5407 117.838C17.8986 115.317 16.9934 110.327 19.5149 106.685C22.0364 103.043 27.0255 102.138 30.6677 104.659C34.3099 107.181 35.215 112.17 32.6935 115.812C32.144 116.599 31.4651 117.289 30.6677 117.838C29.8703 118.377 29.6332 119.444 30.1289 120.263L30.1181 120.273Z" fill="white" stroke="#0D274D" stroke-width="0.538782" stroke-miterlimit="10"/>
<path d="M202.357 122.375V127.429H198.726L199.415 122.127C200.191 122.375 200.999 122.472 201.807 122.418C201.991 122.407 202.163 122.396 202.346 122.364L202.357 122.375Z" fill="white" stroke="#0D274D" stroke-width="0.538782" stroke-miterlimit="10"/>
<path d="M123.932 110.231C123.932 110.737 124.061 111.222 124.32 111.653C125.009 112.806 125.354 114.121 125.311 115.468C125.268 116.707 124.901 117.925 124.233 118.97C123.156 120.716 121.367 121.901 119.341 122.224C119.147 122.256 118.953 122.267 118.759 122.278C114.869 122.526 111.529 119.573 111.281 115.694C111.281 115.554 111.27 115.414 111.27 115.274C111.27 115.177 111.27 115.08 111.281 114.983C111.324 113.819 111.658 112.677 112.262 111.675C112.994 110.446 112.66 108.852 111.475 108.033C106.033 104.261 104.676 96.8045 108.436 91.352C112.208 85.9103 119.665 84.5525 125.117 88.3132C130.559 92.0847 131.916 99.5414 128.156 104.994C127.337 106.179 126.302 107.214 125.117 108.033C124.395 108.539 123.953 109.358 123.932 110.242V110.231Z" fill="white" stroke="#0D274D" stroke-width="0.538782" stroke-miterlimit="10"/>
<path d="M119.28 122.375V127.429H115.648L116.338 122.127C117.114 122.375 117.922 122.472 118.73 122.418C118.913 122.407 119.086 122.396 119.269 122.364L119.28 122.375Z" fill="white" stroke="#0D274D" stroke-width="0.538782" stroke-miterlimit="10"/>
<path d="M227.702 127.611H140.57H0.00195312" stroke="#0D274D" stroke-width="0.538782" stroke-miterlimit="10"/>
<path d="M175.193 9.02637H209.298C212.79 9.02637 215.624 11.8604 215.624 15.3517C215.624 18.843 212.79 21.677 209.298 21.677H175.193C171.702 21.677 168.868 18.843 168.868 15.3517C168.868 11.8604 171.702 9.02637 175.193 9.02637Z" fill="white" stroke="#0D274D" stroke-width="0.538782" stroke-miterlimit="10"/>
<path d="M152.154 0.544922H186.259C189.751 0.544922 192.585 3.37891 192.585 6.87022C192.585 10.3615 189.751 13.1955 186.259 13.1955H152.154C148.663 13.1955 145.829 10.3615 145.829 6.87022C145.829 3.37891 148.663 0.544922 152.154 0.544922Z" fill="white" stroke="#0D274D" stroke-width="0.538782" stroke-miterlimit="10"/>
<path d="M36.2744 127.493C40.4343 127.493 43.8065 124.121 43.8065 119.961C43.8065 115.801 40.4343 112.429 36.2744 112.429C32.1145 112.429 28.7422 115.801 28.7422 119.961C28.7422 124.121 32.1145 127.493 36.2744 127.493Z" fill="#0D274D" stroke="#0D274D" stroke-width="0.538782" stroke-miterlimit="10"/>
<path d="M28.7327 32.8281H57.967C60.9626 32.8281 63.3979 35.2526 63.3979 38.259C63.3979 41.2547 60.9734 43.6899 57.967 43.6899H28.7327C25.7371 43.6899 23.3018 41.2654 23.3018 38.259C23.3018 35.2634 25.7263 32.8281 28.7327 32.8281Z" fill="white" stroke="#0D274D" stroke-width="0.538782" stroke-miterlimit="10"/>
</svg>
