<svg width="16" height="17" viewBox="0 0 16 17" fill="none" xmlns="http://www.w3.org/2000/svg">
<path fill-rule="evenodd" clip-rule="evenodd" d="M11.24 2.875H14.5C14.775 2.875 15 3.1 15 3.375V14.495C15 14.77 14.775 14.995 14.5 14.995H1.51C1.235 14.995 1.01 14.77 1.01 14.495V6.685C1.01 6.675 1.0075 6.66625 1.005 6.6575C1.0025 6.64875 1 6.64 1 6.63C1 6.61 1.01 6.575 1.01 6.575V3.375C1.01 3.1 1.235 2.875 1.51 2.875H4.765V2C4.765 1.725 4.99 1.5 5.265 1.5C5.54 1.5 5.765 1.725 5.765 2V2.875H10.24V2C10.24 1.725 10.465 1.5 10.74 1.5C11.015 1.5 11.24 1.725 11.24 2V2.875ZM4.77 4.7V3.875H4.765H2.01V6.13H14.005V3.875H11.245V4.7C11.245 4.975 11.02 5.2 10.745 5.2C10.47 5.2 10.245 4.975 10.245 4.7V3.875H5.77V4.7C5.77 4.975 5.545 5.2 5.27 5.2C4.995 5.2 4.77 4.975 4.77 4.7ZM2.015 7.13V14H14.005V7.13H2.015ZM7.54498 11.63L10.2 8.31005L10.205 8.30505C10.38 8.09005 10.695 8.05005 10.91 8.22505C11.125 8.40005 11.16 8.71505 10.99 8.93005L7.98498 12.69C7.89498 12.8 7.75998 12.865 7.61998 12.875H7.58998C7.45498 12.875 7.32998 12.825 7.23498 12.73L5.59498 11.09C5.39998 10.8951 5.39998 10.5801 5.59498 10.385C5.78998 10.1901 6.10498 10.1901 6.29998 10.385L7.54498 11.63Z" fill="#0070D2"/>
</svg>
