<svg width="40" height="33" viewBox="0 0 40 33" fill="none" xmlns="http://www.w3.org/2000/svg">
<path d="M37.9319 11.2635C37.7632 11.7329 37.5963 12.2022 37.4268 12.6716C36.6937 14.7053 35.9589 16.7381 35.2258 18.7718C35.1716 18.9228 35.1182 19.0746 35.0657 19.2265C34.9702 19.5043 34.8446 19.7675 34.6975 20.0212C34.6803 20.0505 34.657 20.0755 34.6364 20.1023C34.565 20.0263 34.5813 19.9306 34.5805 19.84C34.5787 19.1497 34.5796 18.4595 34.5796 17.7701C34.5796 13.7502 34.5796 9.73025 34.5787 5.71035C34.5787 5.55504 34.5899 5.4006 34.6028 5.24615C34.6037 5.18144 34.6338 5.12449 34.6536 5.06582C34.7242 4.85357 34.7973 4.64304 34.8696 4.43164C35.064 3.86045 35.385 3.37296 35.8298 2.96743C36.1189 2.70427 36.4519 2.52049 36.8374 2.44283C37.0508 2.39969 37.2668 2.38071 37.4853 2.40918C37.6376 2.42903 37.7925 2.43162 37.9388 2.48511C37.9663 2.56277 37.962 2.64301 37.962 2.72411C37.962 5.42907 37.9611 8.13403 37.9637 10.839C37.9637 10.9813 37.9284 11.1211 37.9319 11.2635Z" fill="white"/>
<path d="M34.6539 5.17471C34.6737 5.19714 34.6815 5.22475 34.6815 5.25409C34.6815 5.3119 34.6823 5.36884 34.6823 5.42665C34.6823 10.2145 34.6823 15.0023 34.6823 19.7901C34.6823 19.8704 34.6858 19.9506 34.6875 20.0317C34.678 20.0852 34.6436 20.1249 34.6152 20.1672C33.9183 21.2172 32.9589 21.873 31.7155 22.1016C31.6252 22.118 31.5357 22.1335 31.4436 22.1379C31.349 22.1508 31.3455 22.0775 31.3343 22.0171C31.3206 21.9437 31.3266 21.8678 31.3266 21.7936C31.3266 19.627 31.3266 17.4605 31.3257 15.2939C31.3257 15.1438 31.3473 14.9971 31.3791 14.8513C31.4419 14.6546 31.5021 14.457 31.5684 14.2611C32.113 12.6511 32.6586 11.0411 33.2032 9.43103C33.673 8.0436 34.142 6.65704 34.6126 5.26962C34.6238 5.23597 34.6402 5.20577 34.6539 5.17471Z" fill="white"/>
<path d="M11.6482 0.793739C11.834 0.891238 11.9777 1.03964 12.1111 1.19754C12.3236 1.44949 12.4845 1.73336 12.6179 2.03448C12.7039 2.22862 12.7917 2.42189 12.8829 2.61344C13.4671 3.84124 14.0531 5.06904 14.6373 6.29684C14.7337 6.49874 14.824 6.70323 14.9178 6.90599C14.9591 7.02679 14.972 7.15104 14.972 7.27873C14.9712 10.7956 14.972 14.3125 14.9695 17.8294C14.9695 17.9286 15.0159 18.0511 14.8886 18.1193C14.7432 17.8328 14.5969 17.5464 14.4523 17.2599C14.1013 16.5627 13.7519 15.8647 13.4009 15.1675C12.833 14.0398 12.2651 12.9121 11.6972 11.7844C11.6636 11.718 11.6215 11.6558 11.6086 11.5799C11.5707 11.4522 11.5544 11.3228 11.5544 11.1891C11.5552 7.83612 11.5552 4.48318 11.5552 1.13024C11.5552 1.06121 11.5509 0.991326 11.5621 0.923162C11.5707 0.867942 11.569 0.802367 11.6482 0.793739Z" fill="white"/>
<path d="M14.8886 18.1193C14.8972 18.0986 14.9117 18.0786 14.9126 18.0579C14.916 18.001 14.9143 17.9432 14.9143 17.8854C14.9143 14.2486 14.9143 10.6118 14.9134 6.97494C14.9134 6.95165 14.9161 6.92929 14.9178 6.90599C14.9402 6.94568 14.9651 6.98357 14.9848 7.02499C15.2103 7.49695 15.4349 7.96892 15.6594 8.44088C15.9262 9.00086 16.1938 9.56083 16.4605 10.1208C16.698 10.6187 16.9346 11.1165 17.1712 11.6144C17.4156 12.1277 17.6608 12.6411 17.9052 13.1545C18.0041 13.3616 18.1031 13.5695 18.2012 13.7775C18.2106 13.7973 18.2141 13.8206 18.2201 13.8422C18.2425 13.9958 18.2399 14.1511 18.2399 14.3064C18.2399 16.6973 18.2399 19.0873 18.2382 21.4782C18.2382 21.5843 18.2657 21.6991 18.1797 21.7905C18.1521 21.7845 18.122 21.7828 18.0971 21.7715C17.6883 21.5886 17.3003 21.3712 16.9501 21.0882C16.7565 20.932 16.6016 20.7405 16.4355 20.5601C16.2067 20.3116 15.9976 20.0459 15.8031 19.7689C15.5321 19.3841 15.292 18.9812 15.0941 18.5523C15.0279 18.4065 14.9574 18.2634 14.8886 18.1193Z" fill="white"/>
<path d="M11.6482 0.793739C11.6266 0.814446 11.6146 0.840542 11.6146 0.870741C11.6137 0.92855 11.6137 0.985496 11.6137 1.04331C11.6137 4.4808 11.6137 7.9183 11.6137 11.3558C11.6137 11.43 11.6112 11.5049 11.6086 11.5799C11.5277 11.4686 11.4709 11.342 11.409 11.2203C10.8307 10.0719 10.2603 8.92004 9.67689 7.77507C9.39037 7.21251 9.12019 6.64218 8.84226 6.0753C8.70804 5.80265 8.57811 5.52741 8.44732 5.25303C8.42495 5.20558 8.40258 5.15898 8.34235 5.15122C8.28384 5.08478 8.28642 5.00281 8.28642 4.92257C8.28556 3.56017 8.28556 2.19777 8.28642 0.835365C8.28642 0.755985 8.27695 0.672291 8.33977 0.606716C8.39656 0.604128 8.45421 0.598951 8.51099 0.598951C9.35423 0.598088 10.1975 0.599813 11.0407 0.597225C11.2661 0.595499 11.4683 0.659138 11.6482 0.793739Z" fill="white"/>
<path d="M18.2176 25.272C19.0978 25.1382 19.9213 25.2979 20.6845 25.7569C20.9504 25.9165 21.1904 26.1098 21.4047 26.335C21.4357 26.3678 21.4623 26.4057 21.4907 26.4411C21.5398 26.5239 21.5449 26.6145 21.5449 26.7068C21.5449 28.1642 21.5449 29.6206 21.5449 31.0779C21.5449 31.1702 21.5441 31.2617 21.489 31.3428C21.347 31.5326 21.1646 31.681 20.9779 31.8217C20.4943 32.1866 19.9505 32.4153 19.3534 32.5102C18.9782 32.5697 18.6022 32.5689 18.2271 32.5102C18.2116 32.5076 18.197 32.4955 18.1815 32.4878C18.1281 32.4187 18.1299 32.3376 18.1299 32.2574C18.129 30.0166 18.129 27.7759 18.1307 25.5351C18.1299 25.4394 18.1152 25.335 18.2176 25.272Z" fill="white"/>
<path d="M31.3359 32.5441C31.0175 32.5691 30.7052 32.5199 30.4006 32.4388C29.3792 32.1662 28.61 31.5622 28.092 30.6381C28.0696 30.5984 28.055 30.5553 28.0361 30.513C28.0085 30.3603 28.0068 30.2067 28.0068 30.0514C28.0085 29.33 28.0068 28.6087 28.0077 27.8874C28.0077 27.682 27.9991 27.4758 28.0318 27.2713C28.1368 27.0142 28.2934 26.7882 28.4672 26.5759C29.0376 25.8796 29.7673 25.4491 30.6492 25.2808C30.8738 25.2377 31.1018 25.2118 31.3316 25.2351C31.3909 25.3006 31.3875 25.3835 31.3875 25.4629C31.3884 27.7468 31.3884 30.0307 31.3875 32.3154C31.3875 32.3948 31.3961 32.4776 31.3359 32.5441Z" fill="white"/>
<path d="M31.3359 32.5441C31.335 32.469 31.3333 32.3948 31.3333 32.3198C31.3333 30.0324 31.3333 27.7459 31.3333 25.4586C31.3333 25.3835 31.3324 25.3101 31.3316 25.2351C31.5389 25.2135 31.7446 25.2377 31.946 25.2774C33.0732 25.4983 33.9267 26.1092 34.5006 27.1083C34.5548 27.2024 34.6116 27.2955 34.6366 27.4034C34.6787 27.5527 34.6942 27.7045 34.6942 27.8598C34.6916 28.5466 34.6925 29.2326 34.6942 29.9194C34.6942 30.0695 34.6787 30.2153 34.6392 30.3594C34.6349 30.425 34.5996 30.4794 34.5703 30.5346C34.0102 31.5967 33.1463 32.2533 31.9683 32.488C31.7593 32.5294 31.5493 32.5622 31.3359 32.5441Z" fill="white"/>
<path d="M18.1814 21.7895C18.1832 21.7153 18.1875 21.6402 18.1875 21.566C18.1875 19.0681 18.1875 16.5711 18.1875 14.0732C18.1875 14.0215 18.1875 13.9697 18.1883 13.9179C18.1883 13.8877 18.1969 13.862 18.2201 13.8422C18.2726 13.9112 18.301 13.9939 18.338 14.0707C18.5136 14.4374 18.6831 14.8075 18.8655 15.1708C19.1598 15.7575 19.5599 16.2622 20.0813 16.6634C20.3936 16.9042 20.7412 17.0741 21.1336 17.1406C21.2239 17.1561 21.3143 17.1647 21.4046 17.1768C21.4958 17.1647 21.526 17.2208 21.5371 17.2976C21.5466 17.3658 21.5449 17.4357 21.5449 17.5047C21.5449 18.9655 21.5449 20.4254 21.5449 21.8861C21.5449 22.214 21.544 22.2157 21.2153 22.214C20.7223 22.2105 20.2293 22.2261 19.7371 22.2054C19.4859 22.1933 19.2432 22.1329 18.9997 22.0733C18.7622 22.0155 18.5291 21.9422 18.301 21.8525C18.258 21.8361 18.2133 21.824 18.1814 21.7895Z" fill="white"/>
<path d="M31.3289 14.9204C31.3298 14.9894 31.3323 15.0585 31.3323 15.1275C31.3323 17.4114 31.3323 19.6944 31.3323 21.9783C31.3323 22.0361 31.3323 22.0931 31.3358 22.1509C31.3375 22.1845 31.3676 22.1949 31.3934 22.2078C31.3582 22.2346 31.3169 22.2285 31.2773 22.2285C30.2181 22.2294 29.158 22.2285 28.0988 22.2285C28.0764 22.2285 28.0532 22.2233 28.0308 22.2208C27.9938 22.1509 28.0067 22.0741 28.0067 22.0007C28.0067 20.5167 28.0067 19.0335 28.0067 17.5494C28.0067 17.5089 28.0042 17.4683 28.0067 17.4286C28.0154 17.2932 27.9482 17.2414 27.82 17.2492C27.7684 17.2526 27.7168 17.2492 27.6652 17.2492C26.8107 17.2492 25.9563 17.2492 25.101 17.2483C25.0098 17.2483 24.9169 17.2578 24.8283 17.225C24.8068 17.2155 24.7904 17.2 24.7801 17.1784C24.8429 17.175 24.9057 17.1698 24.9685 17.1698C26.2644 17.1689 27.5593 17.1689 28.8551 17.1698C28.9524 17.1698 29.0496 17.1784 29.1468 17.1724C29.5211 17.1491 29.8403 16.9877 30.1295 16.7591C30.3618 16.5762 30.5502 16.3536 30.718 16.1111C30.9443 15.7832 31.1181 15.4286 31.2652 15.0585C31.285 15.0127 31.2902 14.9584 31.3289 14.9204Z" fill="white"/>
<path d="M18.2176 25.272C18.1995 25.3082 18.1849 25.3456 18.1866 25.387C18.1883 25.4327 18.1866 25.4793 18.1866 25.525C18.1866 27.7718 18.1866 30.0178 18.1866 32.2645C18.1866 32.3388 18.1832 32.4136 18.1815 32.4878C18.0645 32.4938 17.9543 32.4595 17.8441 32.4302C17.2978 32.2835 16.8108 32.0247 16.384 31.6537C16.0656 31.3767 15.8058 31.0506 15.5958 30.6821C15.3738 30.293 15.2327 29.8754 15.1673 29.4353C15.1234 29.1411 15.1131 28.8443 15.1449 28.5432C15.194 28.0669 15.3205 27.6182 15.5407 27.1972C15.897 26.5164 16.4175 25.9961 17.0981 25.6389C17.4501 25.4534 17.8218 25.3246 18.2176 25.272Z" fill="white"/>
<path d="M24.7801 17.1784C24.7861 17.181 24.7914 17.1864 24.7922 17.1925C24.818 17.2589 24.8129 17.3279 24.8129 17.397C24.812 18.9259 24.8129 20.4548 24.812 21.9837C24.812 22.0631 24.8258 22.1451 24.7836 22.2202C24.7268 22.2228 24.6692 22.2271 24.6124 22.2271C23.0593 22.2279 21.5071 22.2288 19.954 22.2279C19.8808 22.2279 19.8051 22.2443 19.7354 22.2055C20.0108 22.2038 20.2852 22.202 20.5606 22.2012C20.8127 22.2003 21.0648 22.2012 21.3169 22.2003C21.3565 22.2003 21.3969 22.1977 21.4365 22.1934C21.4615 22.1908 21.4787 22.1727 21.4804 22.1477C21.4838 22.0959 21.4864 22.045 21.4864 21.9932C21.4864 21.183 21.4864 20.372 21.4864 19.5618C21.4864 18.8431 21.4864 18.1243 21.4864 17.4065C21.4864 17.3659 21.4821 17.3254 21.4873 17.2857C21.495 17.2192 21.4537 17.1951 21.4021 17.1778C21.4305 17.1744 21.4589 17.1683 21.4864 17.1683C22.5327 17.1683 23.5799 17.1683 24.6262 17.1692C24.6795 17.1692 24.7293 17.175 24.7801 17.1784Z" fill="white"/>
<path d="M24.7836 22.2202C24.7475 22.1563 24.7612 22.0855 24.7612 22.0173C24.7603 21.145 24.7612 20.2736 24.7612 19.4012C24.7612 18.7239 24.7603 18.0475 24.7629 17.3701C24.7629 17.3106 24.7371 17.2433 24.7939 17.1924C25.8083 17.1924 26.8237 17.1924 27.8381 17.1933C28.0825 17.1933 28.0636 17.1769 28.0636 17.4141C28.0636 18.9491 28.0636 20.4841 28.0636 22.019C28.0636 22.0872 28.0756 22.158 28.0326 22.2201C27.7693 22.2227 27.506 22.2279 27.2427 22.2279C26.4812 22.2279 25.7188 22.2261 24.9573 22.2244C24.8988 22.2244 24.8404 22.2219 24.7836 22.2202Z" fill="white"/>
<path d="M5.07003 5.14999C5.00721 5.15258 4.94526 5.15776 4.88245 5.15776C4.04869 5.15862 3.21492 5.15776 2.38115 5.15862C2.26671 5.15862 2.15314 5.16466 2.0387 5.16811C1.94749 5.1707 1.85628 5.16897 1.7668 5.14654C1.70657 5.08096 1.71173 4.99813 1.71173 4.91789C1.71087 3.56325 1.71087 2.20862 1.71173 0.85312C1.71173 0.772878 1.71001 0.690909 1.76852 0.624472C1.87349 0.58737 1.98277 0.597724 2.09118 0.597724C3.02734 0.596861 3.96436 0.596861 4.90052 0.597724C4.95731 0.597724 5.0141 0.602901 5.07089 0.605489C5.13542 0.670201 5.12596 0.753895 5.12596 0.833275C5.12768 2.19568 5.12768 3.55808 5.12596 4.92048C5.12682 5.00158 5.1294 5.08355 5.07003 5.14999Z" fill="white"/>
<path d="M5.07003 5.14999C5.07003 3.63573 5.07089 2.11975 5.07089 0.605489C5.12251 0.602901 5.17337 0.598633 5.225 0.598633C6.21192 0.59777 7.19799 0.59777 8.18491 0.598633C8.23654 0.598633 8.28816 0.602947 8.33893 0.605536C8.33979 0.8756 8.34065 1.1448 8.34065 1.41487C8.34065 2.65992 8.34151 3.90498 8.34151 5.15004C8.29075 5.15263 8.23912 5.1578 8.18749 5.1578C7.19885 5.15867 6.21106 5.15867 5.22242 5.1578C5.17251 5.1578 5.12165 5.15258 5.07003 5.14999Z" fill="white"/>
<path d="M24.7603 11.1709C24.8171 11.1675 24.8748 11.1614 24.9316 11.1614C25.6655 11.1606 26.3995 11.1606 27.1334 11.1614C27.3873 11.1614 27.6359 11.1994 27.8751 11.2891C27.9285 11.309 27.9844 11.3245 28.0291 11.3633C28.1092 11.4125 28.1169 11.4936 28.1169 11.5747C28.1195 12.6524 28.1195 13.7292 28.1169 14.8069C28.1169 14.8707 28.1092 14.9328 28.0627 14.9837C27.9224 15.0795 27.7598 15.1166 27.5989 15.1546C27.4707 15.1848 27.3391 15.1969 27.2066 15.1969C26.421 15.196 25.6354 15.1969 24.849 15.196C24.8206 15.196 24.7922 15.1917 24.7638 15.1891C24.7001 15.1252 24.7044 15.0424 24.7044 14.9622C24.7035 13.7741 24.7027 12.5859 24.7044 11.397C24.7035 11.3185 24.6949 11.2348 24.7603 11.1709Z" fill="white"/>
<path d="M24.7603 11.1709C24.7603 12.4358 24.7605 13.6999 24.7605 14.9648C24.7605 15.0398 24.7629 15.114 24.7638 15.1891C24.6786 15.1917 24.5918 15.196 24.5066 15.196C24.1349 15.1969 23.7632 15.1995 23.3915 15.1952C22.8184 15.1891 22.3357 14.97 21.9451 14.5532C21.7024 14.2944 21.5364 13.9898 21.4641 13.6378C21.4546 13.328 21.4477 13.0182 21.4675 12.7085C21.6611 11.9665 22.1284 11.4841 22.852 11.2477C23.0327 11.1891 23.2203 11.1649 23.4087 11.1614C23.8312 11.1545 24.2545 11.1589 24.677 11.1597C24.7037 11.1606 24.7319 11.1675 24.7603 11.1709Z" fill="white"/>
<path d="M37.9319 11.2635C37.9138 11.2402 37.9062 11.2119 37.9062 11.1826C37.9062 11.1368 37.9053 11.0902 37.9053 11.0445C37.9053 8.26189 37.9053 5.48014 37.9062 2.69753C37.9062 2.62591 37.8803 2.5474 37.938 2.48268C38.7416 2.65525 39.3508 3.08839 39.7225 3.83473C39.8094 4.00989 39.8757 4.19453 39.929 4.38176C39.9987 4.62681 40.0116 4.87961 39.991 5.13415C39.9583 5.53795 39.8628 5.92795 39.726 6.30759C39.1469 7.91158 38.567 9.51471 37.987 11.1178C37.969 11.167 37.9499 11.2152 37.9319 11.2635Z" fill="white"/>
<path d="M1.76852 0.624472C1.76852 2.13183 1.7668 3.63918 1.7668 5.14654C1.23075 5.10599 0.79194 4.88131 0.45809 4.45593C0.270514 4.21693 0.156075 3.94169 0.088961 3.64833C-0.0573137 3.00725 -0.0203148 2.37221 0.178447 1.74666C0.199097 1.68109 0.22405 1.61724 0.251584 1.55425C0.435718 1.13578 0.741174 0.854501 1.17914 0.721626C1.37102 0.662954 1.56546 0.614981 1.76852 0.624472Z" fill="white"/>
<path d="M21.4882 31.3417C21.4873 29.9776 21.4873 28.6126 21.4873 27.2485C21.4873 26.9793 21.4899 26.7101 21.4907 26.44C21.5123 26.459 21.5363 26.4745 21.5544 26.4961C21.9872 27.0121 22.2746 27.5971 22.3864 28.2658C22.4183 28.459 22.4432 28.6532 22.4424 28.8482C22.4389 29.7222 22.1774 30.5082 21.6267 31.1916C21.5845 31.2442 21.5518 31.3072 21.4882 31.3417Z" fill="white"/>
<path d="M28.0619 14.9825C28.0619 13.8479 28.0619 12.7141 28.0619 11.5795C28.0619 11.5053 28.0714 11.4294 28.0284 11.3621C28.2529 11.4441 28.4388 11.5882 28.604 11.7555C28.9955 12.1533 29.2037 12.6373 29.1908 13.1956C29.1719 13.9885 28.801 14.5796 28.111 14.9687C28.0972 14.9773 28.0783 14.9782 28.0619 14.9825Z" fill="white"/>
<path d="M28.0318 27.2713C28.0412 27.2912 28.0567 27.3108 28.0592 27.3324C28.0644 27.366 28.0618 27.4014 28.0618 27.4359C28.0618 28.4066 28.0618 29.3773 28.061 30.348C28.061 30.4041 28.0782 30.4629 28.0361 30.513C27.9079 30.2999 27.8312 30.0667 27.7701 29.8277C27.5576 29.0002 27.6196 28.1926 27.9586 27.4075C27.9792 27.3609 28.0077 27.3162 28.0318 27.2713Z" fill="white"/>
<path d="M34.6372 30.3592C34.6347 30.3135 34.6312 30.2677 34.6312 30.222C34.6312 29.3169 34.6312 28.4118 34.6312 27.5067C34.6312 27.4722 34.6338 27.4377 34.6355 27.404C34.6958 27.4825 34.7198 27.5783 34.7508 27.6689C35.0442 28.5317 35.0262 29.3894 34.7009 30.2401C34.6854 30.2824 34.6742 30.3281 34.6372 30.3592Z" fill="white"/>
<path d="M21.4666 12.7079C21.4889 12.7373 21.4889 12.7718 21.4889 12.8054C21.4889 13.0505 21.4889 13.2955 21.4889 13.5406C21.4889 13.5751 21.4881 13.6087 21.4631 13.6372C21.3857 13.3274 21.3883 13.0177 21.4666 12.7079Z" fill="#5AAA96"/>
</svg>
