<svg width="16" height="16" viewBox="0 0 16 16" fill="none" xmlns="http://www.w3.org/2000/svg">
<path fill-rule="evenodd" clip-rule="evenodd" d="M1 8C1 4.14 4.14 1 8 1C11.86 1 15 4.14 15 8C15 11.86 11.86 15 8 15C4.14 15 1 11.86 1 8ZM2 8C2 11.31 4.69 14 8 14C11.31 14 14 11.31 14 8C14 4.69 11.31 2 8 2C4.69 2 2 4.69 2 8ZM7.04498 10.055L10.555 5.36499V5.35999C10.72 5.13999 11.035 5.09499 11.255 5.25999C11.475 5.42499 11.52 5.73999 11.355 5.95999L7.50998 11.1C7.42498 11.215 7.29498 11.29 7.15498 11.3H7.10998C6.97998 11.3 6.85998 11.25 6.76498 11.165L4.50998 9.03999C4.30998 8.85499 4.29998 8.53499 4.48998 8.33499C4.67998 8.13499 4.99498 8.12499 5.19498 8.31499L7.04498 10.055Z" fill="#399E20"/>
</svg>
