<svg width="14" height="14" viewBox="0 0 14 14" fill="none" xmlns="http://www.w3.org/2000/svg">
<path fill-rule="evenodd" clip-rule="evenodd" d="M0.875 7C0.875 3.6225 3.6225 0.875 7 0.875C10.3775 0.875 13.125 3.6225 13.125 7C13.125 10.3775 10.3775 13.125 7 13.125C3.6225 13.125 0.875 10.3775 0.875 7ZM1.75 7C1.75 9.89625 4.10375 12.25 7 12.25C9.89625 12.25 12.25 9.89625 12.25 7C12.25 4.10375 9.89625 1.75 7 1.75C4.10375 1.75 1.75 4.10375 1.75 7ZM7.13125 3.71875C7.13125 3.47885 7.32693 3.28244 7.56656 3.28126C7.80619 3.28244 8.00187 3.47885 8.00187 3.71875V7.56875C8.00187 7.6825 7.95375 7.79625 7.87062 7.87938L5.81437 9.89188C5.72687 9.97938 5.6175 10.0188 5.50812 10.0188C5.39875 10.0188 5.285 9.975 5.1975 9.8875C5.03125 9.71688 5.03562 9.44125 5.20625 9.27063L7.13125 7.385V3.71875ZM7.56656 3.28126C7.56729 3.28125 7.56802 3.28125 7.56875 3.28125H7.56437C7.5651 3.28125 7.56583 3.28125 7.56656 3.28126Z" fill="#E3241B"/>
</svg>
