<svg width="18" height="18" viewBox="0 0 18 18" fill="none" xmlns="http://www.w3.org/2000/svg">
<path fill-rule="evenodd" clip-rule="evenodd" d="M16.3125 3.68438H13.9275C13.8206 2.25563 12.6 1.125 11.0981 1.125H6.90188C5.4 1.125 4.17937 2.25563 4.0725 3.68438H1.6875C1.37812 3.68438 1.125 3.9375 1.125 4.24688V6.82875C1.125 7.13813 1.37812 7.39125 1.6875 7.39125H2.8125L3.50437 16.3519C3.52688 16.6444 3.76875 16.8694 4.06687 16.8694H13.9388C14.2313 16.8694 14.4788 16.6444 14.5013 16.3519L15.1931 7.39125H16.3181C16.6275 7.39125 16.8806 7.13813 16.8806 6.82875V4.24688C16.8806 3.9375 16.6275 3.68438 16.3181 3.68438H16.3125ZM6.90188 2.25H11.0981C11.9812 2.25 12.7013 2.88 12.8025 3.68438H5.1975C5.30437 2.88 6.02438 2.25 6.90188 2.25ZM13.4156 15.75H4.58437L3.94313 7.39125H14.0569L13.4156 15.75ZM15.75 6.26625H14.7937C14.7937 6.26625 14.7431 6.24375 14.715 6.24375C14.6475 6.23813 14.58 6.24375 14.5125 6.26625H3.4875C3.42562 6.24938 3.35812 6.23813 3.29062 6.24375C3.27232 6.24375 3.25402 6.2509 3.23726 6.25744C3.22827 6.26095 3.21973 6.26429 3.21187 6.26625H2.25563V4.80938H15.7556V6.26625H15.75ZM7.41934 14.7938C7.72872 14.7938 7.98184 14.5407 7.98184 14.2313V8.88753C7.98184 8.57815 7.72872 8.32503 7.41934 8.32503C7.10997 8.32503 6.85684 8.57815 6.85684 8.88753V14.2313C6.85684 14.5407 7.10997 14.7938 7.41934 14.7938ZM11.1432 14.2313C11.1432 14.5407 10.89 14.7938 10.5807 14.7938C10.2713 14.7938 10.0182 14.5407 10.0182 14.2313V8.88753C10.0182 8.57815 10.2713 8.32503 10.5807 8.32503C10.89 8.32503 11.1432 8.57815 11.1432 8.88753V14.2313Z" fill="#0070D2"/>
</svg>
