<svg width="32" height="32" viewBox="0 0 32 32" fill="none" xmlns="http://www.w3.org/2000/svg">
<circle cx="16" cy="16" r="16" fill="#D7EAFC"/>
<path d="M24.2285 19.8175V21.8304H28.0898C28.2943 21.8304 28.4354 21.6254 28.3624 21.4343L27.784 19.9217C27.7584 19.8546 27.7584 19.7804 27.784 19.7133L28.3624 18.2007C28.4354 18.0097 28.2943 17.8047 28.0898 17.8047H24.2285V19.8175Z" fill="#0070D2"/>
<path d="M7.35387 19.8175V21.8304H3.47565C3.27112 21.8304 3.13007 21.6254 3.2031 21.4344L3.78147 19.9218C3.80711 19.8547 3.80711 19.7804 3.78147 19.7134L3.2031 18.2007C3.13007 18.0097 3.27112 17.8047 3.47565 17.8047H7.35387V19.8175Z" fill="#0070D2"/>
<path d="M6.90234 12.6631C6.90234 9.94641 9.10462 7.74414 11.8213 7.74414H19.9439C22.6606 7.74414 24.8628 9.94642 24.8628 12.6631V19.5432C24.8628 22.2599 22.6606 24.4621 19.9439 24.4621H11.8213C9.10462 24.4621 6.90234 22.2599 6.90234 19.5432V12.6631Z" fill="#00509E"/>
<path d="M19.3624 11.5058H12.4023C12.1985 11.5058 12.0332 11.3405 12.0332 11.1367C12.0332 10.9328 12.1985 10.7676 12.4023 10.7676H19.3624C19.5663 10.7676 19.7315 10.9328 19.7315 11.1367C19.7315 11.3405 19.5662 11.5058 19.3624 11.5058Z" fill="white"/>
<path d="M18.3901 14.8241H13.373C13.1692 14.8241 13.0039 14.6589 13.0039 14.455C13.0039 14.2512 13.1692 14.0859 13.373 14.0859H18.3902C18.594 14.0859 18.7593 14.2512 18.7593 14.455C18.7593 14.6589 18.594 14.8241 18.3901 14.8241Z" fill="white"/>
<path d="M21.2486 13.1659H10.5156C10.3117 13.1659 10.1465 13.0007 10.1465 12.7968C10.1465 12.593 10.3117 12.4277 10.5156 12.4277H21.2486C21.4524 12.4277 21.6177 12.593 21.6177 12.7968C21.6177 13.0007 21.4524 13.1659 21.2486 13.1659Z" fill="white"/>
<path d="M25.5589 20.5217C25.5589 20.9098 25.2541 21.2244 24.866 21.2244C21.6115 21.2244 9.71118 21.2244 6.69994 21.2244C6.31184 21.2244 6.00391 20.9098 6.00391 20.5217V18.5015C6.00391 18.1134 6.31185 17.7988 6.69994 17.7988C9.71118 17.7988 21.6115 17.7988 24.866 17.7988C25.2541 17.7988 25.5589 18.1134 25.5589 18.5015V20.5217Z" fill="#57AEFA"/>
<path d="M16.4352 15.7945L17.2157 17.3759C17.2669 17.4797 17.3658 17.5516 17.4804 17.5683L19.2257 17.8219C19.8228 17.9086 20.0612 18.6425 19.6291 19.0636L18.3662 20.2946C18.2834 20.3754 18.2455 20.4918 18.2651 20.6058L18.5632 22.344C18.6652 22.9387 18.041 23.3923 17.507 23.1115L15.9459 22.2908C15.8435 22.2369 15.7212 22.2369 15.6187 22.2908L14.0577 23.1115C13.5236 23.3923 12.8994 22.9387 13.0014 22.344L13.2995 20.6058C13.3191 20.4918 13.2812 20.3754 13.1984 20.2946L11.9355 19.0636C11.5034 18.6425 11.7419 17.9086 12.339 17.8219L14.0842 17.5683C14.1987 17.5516 14.2978 17.4797 14.349 17.3759L15.1294 15.7945C15.3966 15.2534 16.1681 15.2534 16.4352 15.7945Z" fill="#FBAB2C"/>
</svg>
