<svg width="16" height="16" viewBox="0 0 16 16" fill="none" xmlns="http://www.w3.org/2000/svg">
<path fill-rule="evenodd" clip-rule="evenodd" d="M1 8C1 4.14 4.14 1 8 1C11.86 1 15 4.14 15 8C15 11.86 11.86 15 8 15C4.14 15 1 11.86 1 8ZM2 8C2 11.31 4.69 14 8 14C11.31 14 14 11.31 14 8C14 4.69 11.31 2 8 2C4.69 2 2 4.69 2 8ZM8.5 7.5H11.5C11.775 7.5 12 7.725 12 8C12 8.275 11.775 8.5 11.5 8.5H8.5V11.5C8.5 11.775 8.275 12 8 12C7.725 12 7.5 11.775 7.5 11.5V8.5H4.5C4.225 8.5 4 8.275 4 8C4 7.725 4.225 7.5 4.5 7.5H7.5V4.5C7.5 4.225 7.725 4 8 4C8.275 4 8.5 4.225 8.5 4.5V7.5Z" fill="#1B1C1D"/>
</svg>
