<svg width="13" height="13" viewBox="0 0 13 13" fill="none" xmlns="http://www.w3.org/2000/svg">
<path d="M11.9871 1.80597C11.8109 1.63012 11.5722 1.53136 11.3233 1.53136C11.0744 1.53136 10.8357 1.63012 10.6596 1.80597L1.59942 10.8666C1.42344 11.0426 1.3246 11.2814 1.32464 11.5303C1.32468 11.7792 1.4236 12.0179 1.59963 12.1938C1.77566 12.3698 2.01439 12.4686 2.2633 12.4686C2.5122 12.4686 2.7509 12.3696 2.92687 12.1936L11.9871 3.13343C12.1629 2.9573 12.2617 2.71859 12.2617 2.4697C12.2617 2.22081 12.1629 1.9821 11.9871 1.80597Z" fill="#0070D2"/>
<path d="M2.85596 3.5H4.16846V4.8125C4.16846 4.92853 4.21455 5.03981 4.2966 5.12186C4.37865 5.20391 4.48993 5.25 4.60596 5.25C4.72199 5.25 4.83327 5.20391 4.91532 5.12186C4.99736 5.03981 5.04346 4.92853 5.04346 4.8125V3.5H6.35596C6.47199 3.5 6.58327 3.45391 6.66532 3.37186C6.74736 3.28981 6.79346 3.17853 6.79346 3.0625C6.79346 2.94647 6.74736 2.83519 6.66532 2.75314C6.58327 2.67109 6.47199 2.625 6.35596 2.625H5.04346V1.3125C5.04346 1.19647 4.99736 1.08519 4.91532 1.00314C4.83327 0.921094 4.72199 0.875 4.60596 0.875C4.48993 0.875 4.37865 0.921094 4.2966 1.00314C4.21455 1.08519 4.16846 1.19647 4.16846 1.3125V2.625H2.85596C2.73993 2.625 2.62865 2.67109 2.5466 2.75314C2.46455 2.83519 2.41846 2.94647 2.41846 3.0625C2.41846 3.17853 2.46455 3.28981 2.5466 3.37186C2.62865 3.45391 2.73993 3.5 2.85596 3.5Z" fill="#0070D2"/>
<path d="M11.1685 10.0625H10.2935V9.1875C10.2935 9.07147 10.2474 8.96019 10.1653 8.87814C10.0833 8.79609 9.97199 8.75 9.85596 8.75C9.73993 8.75 9.62865 8.79609 9.5466 8.87814C9.46455 8.96019 9.41846 9.07147 9.41846 9.1875V10.0625H8.54346C8.42743 10.0625 8.31615 10.1086 8.2341 10.1906C8.15205 10.2727 8.10596 10.384 8.10596 10.5C8.10596 10.616 8.15205 10.7273 8.2341 10.8094C8.31615 10.8914 8.42743 10.9375 8.54346 10.9375H9.41846V11.8125C9.41846 11.9285 9.46455 12.0398 9.5466 12.1219C9.62865 12.2039 9.73993 12.25 9.85596 12.25C9.97199 12.25 10.0833 12.2039 10.1653 12.1219C10.2474 12.0398 10.2935 11.9285 10.2935 11.8125V10.9375H11.1685C11.2845 10.9375 11.3958 10.8914 11.4778 10.8094C11.5599 10.7273 11.606 10.616 11.606 10.5C11.606 10.384 11.5599 10.2727 11.4778 10.1906C11.3958 10.1086 11.2845 10.0625 11.1685 10.0625Z" fill="#0070D2"/>
<path d="M1.54346 7.875C1.54346 7.99103 1.58955 8.10231 1.6716 8.18436C1.75365 8.26641 1.86492 8.3125 1.98096 8.3125C2.09699 8.3125 2.20827 8.26641 2.29032 8.18436C2.37236 8.10231 2.41846 7.99103 2.41846 7.875V7.4375H2.85596C2.97199 7.4375 3.08327 7.39141 3.16532 7.30936C3.24736 7.22731 3.29346 7.11603 3.29346 7C3.29346 6.88397 3.24736 6.77269 3.16532 6.69064C3.08327 6.60859 2.97199 6.5625 2.85596 6.5625H2.41846V6.125C2.41846 6.00897 2.37236 5.89769 2.29032 5.81564C2.20827 5.73359 2.09699 5.6875 1.98096 5.6875C1.86492 5.6875 1.75365 5.73359 1.6716 5.81564C1.58955 5.89769 1.54346 6.00897 1.54346 6.125V6.5625H1.10596C0.989925 6.5625 0.878645 6.60859 0.796598 6.69064C0.714551 6.77269 0.668457 6.88397 0.668457 7C0.668457 7.11603 0.714551 7.22731 0.796598 7.30936C0.878645 7.39141 0.989925 7.4375 1.10596 7.4375H1.54346V7.875Z" fill="#0070D2"/>
</svg>
