<svg width="16" height="16" viewBox="0 0 16 16" fill="none" xmlns="http://www.w3.org/2000/svg">
<path fill-rule="evenodd" clip-rule="evenodd" d="M8 1C4.14 1 1 4.14 1 8C1 11.86 4.14 15 8 15C11.86 15 15 11.86 15 8C15 4.14 11.86 1 8 1ZM8 14C4.69 14 2 11.31 2 8C2 4.69 4.69 2 8 2C11.31 2 14 4.69 14 8C14 11.31 11.31 14 8 14ZM7.97998 6.97998C7.70498 6.97998 7.47998 7.20498 7.47998 7.47998V11.48C7.47998 11.755 7.70498 11.98 7.97998 11.98C8.25498 11.98 8.47998 11.755 8.47998 11.48V7.47998C8.47998 7.20498 8.25498 6.97998 7.97998 6.97998ZM7.25 5.25C7.25 4.835 7.585 4.5 8 4.5C8.415 4.5 8.75 4.835 8.75 5.25C8.75 5.665 8.415 6 8 6C7.585 6 7.25 5.665 7.25 5.25Z" fill="#606162"/>
</svg>
