<svg width="55" height="29" viewBox="0 0 55 29" fill="none" xmlns="http://www.w3.org/2000/svg">
<path d="M17.7692 19.0622H15.2308V28.8375H17.7692V19.0622Z" fill="white"/>
<path d="M37.2305 22.0754C37.1459 21.994 36.3843 21.5868 35.1997 21.5868C33.6766 21.5868 32.5766 22.6457 32.5766 24.1119C32.5766 25.4968 33.592 26.6373 35.1997 26.6373C36.2997 26.6373 37.1459 26.2299 37.2305 26.1485V28.6738C36.892 28.7553 36.1304 28.9996 35.0304 28.9996C32.4074 28.9996 30.1228 27.289 29.9535 24.3564C29.8689 21.7496 31.8151 19.4688 34.5228 19.3058C35.8766 19.2244 36.9766 19.5501 37.2305 19.6316V22.0754Z" fill="white"/>
<path d="M11.8458 22.0756C11.7612 21.9941 10.9997 21.5869 9.81505 21.5869C8.29197 21.5869 7.19199 22.6458 7.19199 24.1121C7.19199 25.4969 8.20736 26.6375 9.81505 26.6375C10.9151 26.6375 11.7612 26.2301 11.8458 26.1486V28.674C11.5074 28.7555 10.7458 28.9998 9.64581 28.9998C7.19196 28.9998 4.99199 27.452 4.65353 24.7638C4.31507 21.9127 6.51503 19.3059 9.47657 19.2245C10.6612 19.2245 11.592 19.469 11.8458 19.5504V22.0756Z" fill="white"/>
<path d="M49.7538 24.031C49.7538 26.7192 47.6384 28.9186 44.7615 28.9186C41.8 28.9186 39.7692 26.7192 39.7692 24.031C39.7692 21.3428 41.8846 19.1433 44.7615 19.1433C47.6384 19.2248 49.7538 21.3428 49.7538 24.031ZM44.7615 21.5871C43.323 21.5871 42.3077 22.7276 42.3077 24.031C42.3077 25.4158 43.323 26.4748 44.7615 26.4748C46.2 26.4748 47.2154 25.3343 47.2154 24.031C47.2154 22.7276 46.1154 21.5871 44.7615 21.5871Z" fill="white"/>
<path d="M27.0769 21.4249C27.0769 21.4249 25.9769 21.0991 25.2154 21.0991C24.2 21.0991 23.6923 21.4249 23.6923 21.9137C23.6923 22.4839 24.3692 22.7284 24.7923 22.8098L25.4692 23.0541C27.0769 23.5428 27.7538 24.6019 27.7538 25.7423C27.7538 28.1047 25.6384 28.9194 23.7769 28.9194C22.5077 28.9194 21.2385 28.675 21.1538 28.675V26.4756C21.4077 26.557 22.423 26.8013 23.4384 26.8013C24.623 26.8013 25.2154 26.4754 25.2154 25.9052C25.2154 25.4164 24.7077 25.1721 24.1154 24.9277C23.9462 24.8462 23.7769 24.8463 23.6077 24.7648C22.2538 24.3575 21.1538 23.543 21.1538 21.9952C21.1538 20.2031 22.5077 18.981 24.7077 18.981C25.8923 18.981 26.9923 19.307 27.0769 19.307V21.4249Z" fill="white"/>
<path d="M2.53846 9.20572C2.53846 8.55403 1.94615 7.9838 1.26923 7.9838C0.592308 7.9838 0 8.55403 0 9.20572V11.8126C0 12.5458 0.592308 13.0345 1.26923 13.0345C1.94615 13.0345 2.53846 12.4643 2.53846 11.8126V9.20572Z" fill="white"/>
<path d="M9.30769 5.86455C9.30769 5.21286 8.71538 4.64263 8.03846 4.64263C7.36154 4.64263 6.76923 5.21286 6.76923 5.86455V11.9741C6.76923 12.7073 7.36154 13.196 8.03846 13.196C8.71538 13.196 9.30769 12.6258 9.30769 11.9741V5.86455Z" fill="white"/>
<path d="M15.2308 1.22191C15.2308 0.570226 14.6385 0 13.9615 0C13.2846 0 12.6923 0.570226 12.6923 1.22191V14.4999C12.6923 15.1516 13.2846 15.7218 13.9615 15.7218C14.6385 15.7218 15.2308 15.1516 15.2308 14.4999V1.22191Z" fill="white"/>
<path d="M22 5.86455C22 5.21286 21.4077 4.64263 20.7308 4.64263C20.0538 4.64263 19.4615 5.21286 19.4615 5.86455V11.9741C19.4615 12.7073 20.0538 13.196 20.7308 13.196C21.4077 13.196 22 12.6258 22 11.9741V5.86455Z" fill="white"/>
<path d="M28.7692 9.20572C28.7692 8.55403 28.1769 7.9838 27.5 7.9838C26.8231 7.9838 26.2308 8.55403 26.2308 9.20572V11.8126C26.2308 12.5458 26.8231 13.0345 27.5 13.0345C28.1769 13.0345 28.7692 12.4643 28.7692 11.8126V9.20572Z" fill="white"/>
<path d="M35.5385 5.86455C35.5385 5.21286 34.9462 4.64263 34.2692 4.64263C33.5923 4.64263 33 5.21286 33 5.86455V11.9741C33 12.7073 33.5923 13.196 34.2692 13.196C34.9462 13.196 35.5385 12.6258 35.5385 11.9741V5.86455Z" fill="white"/>
<path d="M41.4615 1.22191C41.4615 0.488765 40.8692 0 40.1923 0C39.5154 0 38.9231 0.570226 38.9231 1.22191V14.5814C38.9231 15.3146 39.5154 15.8033 40.1923 15.8033C40.8692 15.8033 41.4615 15.2331 41.4615 14.5814V1.22191Z" fill="white"/>
<path d="M48.2308 5.86455C48.2308 5.21286 47.6385 4.64263 46.9615 4.64263C46.2846 4.64263 45.6923 5.21286 45.6923 5.86455V11.9741C45.6923 12.7073 46.2846 13.196 46.9615 13.196C47.6385 13.196 48.2308 12.6258 48.2308 11.9741V5.86455Z" fill="white"/>
<path d="M55 9.20572C55 8.55403 54.4077 7.9838 53.7308 7.9838C53.0538 7.9838 52.4615 8.55403 52.4615 9.20572V11.8126C52.4615 12.5458 53.0538 13.0345 53.7308 13.0345C54.4077 13.0345 55 12.4643 55 11.8126V9.20572Z" fill="white"/>
</svg>
