<svg width="24" height="24" viewBox="0 0 24 24" fill="none" xmlns="http://www.w3.org/2000/svg">
<path d="M0 12C0 5.37258 5.37258 0 12 0C18.6274 0 24 5.37258 24 12C24 18.6274 18.6274 24 12 24C5.37258 24 0 18.6274 0 12Z" fill="#D7EAFC"/>
<path d="M18.25 12.625H5.75C5.58424 12.625 5.42527 12.5592 5.30806 12.4419C5.19085 12.3247 5.125 12.1658 5.125 12C5.125 11.8342 5.19085 11.6753 5.30806 11.5581C5.42527 11.4408 5.58424 11.375 5.75 11.375H18.25C18.4158 11.375 18.5747 11.4408 18.6919 11.5581C18.8092 11.6753 18.875 11.8342 18.875 12C18.875 12.1658 18.8092 12.3247 18.6919 12.4419C18.5747 12.5592 18.4158 12.625 18.25 12.625Z" fill="#0070D2"/>
</svg>
