<svg width="24" height="24" viewBox="0 0 24 24" fill="none" xmlns="http://www.w3.org/2000/svg">
<path d="M21.75 5.82805H17.7525V5.25055C17.7525 3.73555 16.5225 2.49805 15 2.49805H9C7.485 2.49805 6.2475 3.72805 6.2475 5.25055V5.82805H2.25C1.8375 5.82805 1.5 6.16555 1.5 6.57805V21.008C1.5 21.4205 1.8375 21.758 2.25 21.758H21.75C22.1625 21.758 22.5 21.4205 22.5 21.008V6.57805C22.5 6.16555 22.1625 5.82805 21.75 5.82805ZM7.7475 5.25055C7.7475 4.56055 8.31 3.99805 9 3.99805H15C15.69 3.99805 16.2525 4.56055 16.2525 5.25055V5.82805H7.755V5.25055H7.7475ZM21 7.32805V11.2505H15.2475V9.99805C15.2475 9.58555 14.91 9.24805 14.4975 9.24805H9.495C9.0825 9.24805 8.745 9.58555 8.745 9.99805V11.2505H2.9925V7.32805H20.9925H21ZM13.7475 10.748V13.2455H10.245V10.748H13.7475ZM21 20.2505H3V12.743H8.7525V13.9955C8.7525 14.408 9.09 14.7455 9.5025 14.7455H14.505C14.9175 14.7455 15.255 14.408 15.255 13.9955V12.743H21.0075V20.2505H21Z" fill="#1B1C1D"/>
</svg>
