<svg width="16" height="16" viewBox="0 0 16 16" fill="none" xmlns="http://www.w3.org/2000/svg">
<path fill-rule="evenodd" clip-rule="evenodd" d="M15.0095 8.32461C14.9695 6.37961 14.2095 4.55461 12.8595 3.17461C11.4745 1.75961 9.6395 0.974609 7.6845 0.974609C7.6145 0.974609 7.5495 0.989609 7.4895 1.01961C7.4295 1.04961 7.3745 1.08461 7.3245 1.13461C7.2345 1.22961 7.1795 1.35461 7.1745 1.49461V1.50961V1.52461C7.1845 1.59461 7.2095 1.65961 7.2445 1.71961C7.2795 1.77961 7.3295 1.82961 7.3845 1.86961C7.4595 1.93961 7.5745 1.98461 7.6945 1.98961C9.3895 1.98961 10.9795 2.66461 12.1745 3.88961C13.3695 5.11461 14.0345 6.74461 14.0345 8.47961C14.0345 8.61461 14.0845 8.73961 14.1795 8.83461C14.2245 8.87961 14.2745 8.91961 14.3345 8.94461C14.3945 8.96961 14.4595 8.98461 14.5245 8.98461C14.6595 8.98461 14.7845 8.92961 14.8795 8.83461C14.9695 8.73461 15.0195 8.61461 15.0245 8.48461V8.32961H15.0095V8.32461ZM12.6745 11.3697C12.1695 10.9597 11.6695 10.5647 11.1795 10.1897L10.7295 9.83968C10.5645 9.72968 10.3895 9.65968 10.2045 9.62968C10.1345 9.61968 10.0645 9.61468 9.99454 9.61468C9.87954 9.61468 9.76454 9.62968 9.65454 9.65968C9.38954 9.76468 9.17954 9.92968 9.01954 10.1447C8.89954 10.3097 8.74454 10.4447 8.56954 10.5447C8.39454 10.6397 8.19954 10.6997 7.99954 10.7097H7.90454C7.51454 10.6397 7.15454 10.4347 6.88954 10.1347C6.22954 9.47968 5.67454 8.73968 5.22454 7.92968C5.21954 7.71968 5.26454 7.50968 5.34954 7.31968C5.44454 7.11968 5.58454 6.94468 5.75954 6.81468C5.97954 6.63468 6.13954 6.39968 6.23454 6.13468C6.27954 5.93968 6.28954 5.75968 6.25954 5.57968C6.22954 5.39968 6.16954 5.22468 6.07454 5.06968L5.74954 4.63468C5.45903 4.22533 5.13365 3.80436 4.81774 3.39564L4.68954 3.22968L4.56954 3.07468C4.41454 2.89968 4.22454 2.78468 4.01454 2.71968C3.90954 2.68968 3.79954 2.67468 3.68954 2.67468C3.57954 2.67468 3.47454 2.68968 3.36954 2.71968C3.04454 2.83468 2.76454 3.02968 2.53954 3.28468C1.32454 4.47968 0.809537 5.76968 1.01454 7.11468C1.20954 8.28468 1.94954 9.47468 3.40954 10.9647L4.95454 12.5397C6.41454 14.0347 7.56954 14.7897 8.71454 14.9947C8.89454 15.0197 9.06454 15.0297 9.23954 15.0297C9.86454 14.9997 10.4645 14.8447 11.0195 14.5697C11.5745 14.2947 12.0645 13.9097 12.4695 13.4297C12.6995 13.2097 12.8895 12.9247 13.0045 12.6047C13.0645 12.3797 13.0645 12.1497 13.0045 11.9347C12.9445 11.7197 12.8295 11.5247 12.6695 11.3697H12.6745ZM12.0645 12.2747C11.9995 12.4297 11.8995 12.5797 11.7695 12.7047C11.4545 13.0947 11.0845 13.3997 10.6645 13.6247C10.2445 13.8497 9.78954 13.9797 9.31954 14.0147C9.17954 14.0147 9.03454 13.9997 8.89454 13.9747C7.96954 13.8147 6.88454 13.0897 5.66454 11.8097L4.12454 10.2497C2.85954 8.95468 2.16454 7.86968 1.99954 6.93468C1.82954 5.98968 2.24954 4.99468 3.23954 3.97968C3.35954 3.84968 3.49454 3.74468 3.64954 3.67468H3.72454C3.75954 3.67468 3.77954 3.67468 3.83454 3.75468L5.20454 5.59968C5.25954 5.68968 5.29454 5.76968 5.29954 5.80968C5.24454 5.89968 5.17954 5.97968 5.09954 6.04468C4.80954 6.27968 4.57454 6.58968 4.41954 6.93468C4.26454 7.27968 4.19454 7.66468 4.21954 8.04468C4.28454 8.74968 5.77454 10.4497 6.16954 10.8397C6.58454 11.3097 7.15954 11.6247 7.78454 11.7097H7.97454C8.32454 11.6947 8.65454 11.6097 8.95954 11.4497C9.26454 11.2897 9.52954 11.0747 9.74454 10.7997C9.79954 10.7197 9.86954 10.6547 9.94454 10.6047C9.99454 10.6047 10.0695 10.6197 10.2045 10.6797L11.9945 12.0697C12.0895 12.1697 12.0895 12.1797 12.0595 12.2647L12.0645 12.2747ZM9.77449 3.31465C10.4395 3.59465 11.0395 4.00465 11.5495 4.52465L11.5445 4.53465C12.0595 5.05465 12.4595 5.66465 12.7345 6.34465C13.0095 7.02465 13.1545 7.74465 13.1545 8.48465C13.1545 8.61965 13.0995 8.74465 13.0095 8.83965C12.9145 8.93465 12.7945 8.98965 12.6595 8.98965C12.5295 8.98965 12.3995 8.93465 12.3045 8.83465C12.2195 8.73965 12.1645 8.61465 12.1645 8.47965C12.1595 7.25465 11.6945 6.09965 10.8495 5.23465C10.0045 4.36965 8.88449 3.88965 7.70449 3.88965H7.66949C7.61449 3.88965 7.55949 3.87965 7.50949 3.85965C7.44949 3.83465 7.39449 3.79465 7.36449 3.76465C7.31449 3.72465 7.26949 3.67465 7.23449 3.61465C7.19949 3.55465 7.17949 3.48965 7.16949 3.42465V3.41465V3.39965C7.17449 3.26465 7.22949 3.14465 7.31449 3.05465C7.35949 3.00465 7.41449 2.96465 7.47949 2.93465C7.54449 2.90965 7.60949 2.89465 7.67449 2.89465H7.69449C8.41449 2.89465 9.10949 3.03465 9.77449 3.31465Z" fill="#1B1C1D"/>
</svg>
