<svg width="46" height="27" viewBox="0 0 46 27" fill="none" xmlns="http://www.w3.org/2000/svg">
<rect x="11" y="2" width="24" height="24" rx="12" fill="white"/>
<mask id="path-2-outside-1_4340_509790" maskUnits="userSpaceOnUse" x="9.92151" y="0.974609" width="27" height="26" fill="black">
<rect fill="white" x="9.92151" y="0.974609" width="27" height="26"/>
<path d="M35.0429 13.9585C35.0429 20.577 29.6431 25.9424 22.9822 25.9424C16.3213 25.9424 10.9215 20.577 10.9215 13.9585C10.9215 7.33997 16.3213 1.97461 22.9822 1.97461C29.6431 1.97461 35.0429 7.33997 35.0429 13.9585ZM13.1938 13.9585C13.1938 19.3301 17.5762 23.6846 22.9822 23.6846C28.3882 23.6846 32.7706 19.3301 32.7706 13.9585C32.7706 8.58692 28.3882 4.2324 22.9822 4.2324C17.5762 4.2324 13.1938 8.58692 13.1938 13.9585Z"/>
</mask>
<path d="M35.0429 13.9585C35.0429 20.577 29.6431 25.9424 22.9822 25.9424C16.3213 25.9424 10.9215 20.577 10.9215 13.9585C10.9215 7.33997 16.3213 1.97461 22.9822 1.97461C29.6431 1.97461 35.0429 7.33997 35.0429 13.9585ZM13.1938 13.9585C13.1938 19.3301 17.5762 23.6846 22.9822 23.6846C28.3882 23.6846 32.7706 19.3301 32.7706 13.9585C32.7706 8.58692 28.3882 4.2324 22.9822 4.2324C17.5762 4.2324 13.1938 8.58692 13.1938 13.9585Z" fill="#74BF4B" fill-opacity="0.3"/>
<path d="M35.0429 13.9585C35.0429 20.577 29.6431 25.9424 22.9822 25.9424C16.3213 25.9424 10.9215 20.577 10.9215 13.9585C10.9215 7.33997 16.3213 1.97461 22.9822 1.97461C29.6431 1.97461 35.0429 7.33997 35.0429 13.9585ZM13.1938 13.9585C13.1938 19.3301 17.5762 23.6846 22.9822 23.6846C28.3882 23.6846 32.7706 19.3301 32.7706 13.9585C32.7706 8.58692 28.3882 4.2324 22.9822 4.2324C17.5762 4.2324 13.1938 8.58692 13.1938 13.9585Z" stroke="#B7CDAB" stroke-width="2" mask="url(#path-2-outside-1_4340_509790)"/>
<mask id="path-3-outside-2_4340_509790" maskUnits="userSpaceOnUse" x="9.04297" y="0.974609" width="27" height="26" fill="black">
<rect fill="white" x="9.04297" y="0.974609" width="27" height="26"/>
<path d="M22.9823 3.09706C22.9823 2.47715 23.4859 1.96922 24.1032 2.02646C26.5713 2.25532 28.9187 3.23582 30.817 4.84754C33.001 6.70171 34.4471 9.26953 34.8953 12.0889C35.3434 14.9082 34.7641 17.7939 33.2617 20.2266C31.7592 22.6593 29.4321 24.4793 26.6994 25.359C23.9667 26.2387 21.0077 26.1203 18.3549 25.0252C15.7022 23.9301 13.5299 21.9302 12.2291 19.3853C10.9283 16.8405 10.5843 13.9179 11.259 11.1434C11.8457 8.73129 13.169 6.5689 15.0337 4.94533C15.5003 4.53913 16.204 4.65498 16.5683 5.15496V5.15496C16.9357 5.65926 16.8172 6.36182 16.3561 6.78215C14.9284 8.08363 13.9142 9.7831 13.4551 11.6708C12.9067 13.9255 13.1863 16.3006 14.2434 18.3687C15.3006 20.4369 17.0659 22.0622 19.2217 22.9521C21.3776 23.8421 23.7823 23.9383 26.0031 23.2234C28.2239 22.5085 30.115 21.0294 31.3361 19.0524C32.5571 17.0754 33.0279 14.7303 32.6637 12.4391C32.2995 10.1479 31.1242 8.0611 29.3494 6.55427C27.8603 5.29007 26.0313 4.50375 24.1023 4.28329C23.4864 4.2129 22.9823 3.71697 22.9823 3.09706V3.09706Z"/>
</mask>
<path d="M22.9823 3.09706C22.9823 2.47715 23.4859 1.96922 24.1032 2.02646C26.5713 2.25532 28.9187 3.23582 30.817 4.84754C33.001 6.70171 34.4471 9.26953 34.8953 12.0889C35.3434 14.9082 34.7641 17.7939 33.2617 20.2266C31.7592 22.6593 29.4321 24.4793 26.6994 25.359C23.9667 26.2387 21.0077 26.1203 18.3549 25.0252C15.7022 23.9301 13.5299 21.9302 12.2291 19.3853C10.9283 16.8405 10.5843 13.9179 11.259 11.1434C11.8457 8.73129 13.169 6.5689 15.0337 4.94533C15.5003 4.53913 16.204 4.65498 16.5683 5.15496V5.15496C16.9357 5.65926 16.8172 6.36182 16.3561 6.78215C14.9284 8.08363 13.9142 9.7831 13.4551 11.6708C12.9067 13.9255 13.1863 16.3006 14.2434 18.3687C15.3006 20.4369 17.0659 22.0622 19.2217 22.9521C21.3776 23.8421 23.7823 23.9383 26.0031 23.2234C28.2239 22.5085 30.115 21.0294 31.3361 19.0524C32.5571 17.0754 33.0279 14.7303 32.6637 12.4391C32.2995 10.1479 31.1242 8.0611 29.3494 6.55427C27.8603 5.29007 26.0313 4.50375 24.1023 4.28329C23.4864 4.2129 22.9823 3.71697 22.9823 3.09706V3.09706Z" fill="#74BF4B"/>
<path d="M22.9823 3.09706C22.9823 2.47715 23.4859 1.96922 24.1032 2.02646C26.5713 2.25532 28.9187 3.23582 30.817 4.84754C33.001 6.70171 34.4471 9.26953 34.8953 12.0889C35.3434 14.9082 34.7641 17.7939 33.2617 20.2266C31.7592 22.6593 29.4321 24.4793 26.6994 25.359C23.9667 26.2387 21.0077 26.1203 18.3549 25.0252C15.7022 23.9301 13.5299 21.9302 12.2291 19.3853C10.9283 16.8405 10.5843 13.9179 11.259 11.1434C11.8457 8.73129 13.169 6.5689 15.0337 4.94533C15.5003 4.53913 16.204 4.65498 16.5683 5.15496V5.15496C16.9357 5.65926 16.8172 6.36182 16.3561 6.78215C14.9284 8.08363 13.9142 9.7831 13.4551 11.6708C12.9067 13.9255 13.1863 16.3006 14.2434 18.3687C15.3006 20.4369 17.0659 22.0622 19.2217 22.9521C21.3776 23.8421 23.7823 23.9383 26.0031 23.2234C28.2239 22.5085 30.115 21.0294 31.3361 19.0524C32.5571 17.0754 33.0279 14.7303 32.6637 12.4391C32.2995 10.1479 31.1242 8.0611 29.3494 6.55427C27.8603 5.29007 26.0313 4.50375 24.1023 4.28329C23.4864 4.2129 22.9823 3.71697 22.9823 3.09706V3.09706Z" stroke="#74BF4B" stroke-width="2" mask="url(#path-3-outside-2_4340_509790)"/>
</svg>
