<svg width="24" height="24" viewBox="0 0 24 24" fill="none" xmlns="http://www.w3.org/2000/svg">
<path d="M0 12C0 5.37258 5.37258 0 12 0C18.6274 0 24 5.37258 24 12C24 18.6274 18.6274 24 12 24C5.37258 24 0 18.6274 0 12Z" fill="#D7EAFC"/>
<path d="M18.25 11.375H12.625V5.75C12.625 5.58424 12.5592 5.42527 12.4419 5.30806C12.3247 5.19085 12.1658 5.125 12 5.125C11.8342 5.125 11.6753 5.19085 11.5581 5.30806C11.4408 5.42527 11.375 5.58424 11.375 5.75V11.375H5.75C5.58424 11.375 5.42527 11.4408 5.30806 11.5581C5.19085 11.6753 5.125 11.8342 5.125 12C5.125 12.1658 5.19085 12.3247 5.30806 12.4419C5.42527 12.5592 5.58424 12.625 5.75 12.625H11.375V18.25C11.375 18.4158 11.4408 18.5747 11.5581 18.6919C11.6753 18.8092 11.8342 18.875 12 18.875C12.1658 18.875 12.3247 18.8092 12.4419 18.6919C12.5592 18.5747 12.625 18.4158 12.625 18.25V12.625H18.25C18.4158 12.625 18.5747 12.5592 18.6919 12.4419C18.8092 12.3247 18.875 12.1658 18.875 12C18.875 11.8342 18.8092 11.6753 18.6919 11.5581C18.5747 11.4408 18.4158 11.375 18.25 11.375Z" fill="#0070D2"/>
</svg>
