<svg width="16" height="17" viewBox="0 0 16 17" fill="none" xmlns="http://www.w3.org/2000/svg">
<path fill-rule="evenodd" clip-rule="evenodd" d="M13 4.4838H14.5C14.775 4.4838 15 4.7088 15 4.9838V11.1938C15 11.4688 14.775 11.6938 14.5 11.6938H13V14.8438C13 15.1188 12.775 15.3438 12.5 15.3438H3.5C3.225 15.3438 3 15.1188 3 14.8438V11.6938H1.5C1.225 11.6938 1 11.4688 1 11.1938V4.9838C1 4.7088 1.225 4.4838 1.5 4.4838H3V2.7688C3 2.4938 3.225 2.2688 3.5 2.2688H12.5C12.775 2.2688 13 2.4938 13 2.7688V4.4838ZM12 3.2738H4V4.4888H12V3.2738ZM4 14.3438H12V9.3438H4V14.3438ZM13 10.6938H14V5.4838H2V10.6938H3V8.8438C3 8.5688 3.225 8.3438 3.5 8.3438H12.5C12.775 8.3438 13 8.5688 13 8.8438V10.6938ZM13 6.84375C13 7.11989 12.7761 7.34375 12.5 7.34375C12.2239 7.34375 12 7.11989 12 6.84375C12 6.56761 12.2239 6.34375 12.5 6.34375C12.7761 6.34375 13 6.56761 13 6.84375ZM5 11.3438H11C11.275 11.3438 11.5 11.1187 11.5 10.8438C11.5 10.5688 11.275 10.3438 11 10.3438H5C4.725 10.3438 4.5 10.5688 4.5 10.8438C4.5 11.1187 4.725 11.3438 5 11.3438ZM11 13.3438H5C4.725 13.3438 4.5 13.1187 4.5 12.8438C4.5 12.5688 4.725 12.3438 5 12.3438H11C11.275 12.3438 11.5 12.5688 11.5 12.8438C11.5 13.1187 11.275 13.3438 11 13.3438Z" fill="#0070D2"/>
</svg>
