<svg width="17" height="16" viewBox="0 0 17 16" fill="none" xmlns="http://www.w3.org/2000/svg">
<path d="M14.2467 13.1102L11.3667 10.2302C13.0717 8.13516 12.9467 5.04516 10.9967 3.09516C8.91672 1.01516 5.53172 1.01516 3.45172 3.09516C1.37172 5.17516 1.37172 8.56016 3.45172 10.6402C4.49172 11.6802 5.85672 12.2002 7.22172 12.2002C8.44672 12.2002 9.66672 11.7802 10.6567 10.9452L13.5317 13.8202C13.6317 13.9202 13.7567 13.9652 13.8867 13.9652C14.0167 13.9652 14.1417 13.9152 14.2417 13.8202C14.4367 13.6252 14.4367 13.3102 14.2417 13.1152L14.2467 13.1102ZM4.16172 9.93016C2.47172 8.24016 2.47172 5.49016 4.16172 3.80016C5.00672 2.95516 6.11672 2.53516 7.22672 2.53516C8.33672 2.53516 9.44672 2.95516 10.2917 3.80016C11.9817 5.49016 11.9817 8.24016 10.2917 9.93016C8.60172 11.6202 5.85172 11.6202 4.16172 9.93016Z" fill="#1B1C1D"/>
</svg>
