<svg width="16" height="16" viewBox="0 0 16 16" fill="none" xmlns="http://www.w3.org/2000/svg">
<path fill-rule="evenodd" clip-rule="evenodd" d="M11.175 0.945312H13.98C14.255 0.945312 14.48 1.17031 14.48 1.44531V14.4453C14.48 14.7203 14.255 14.9453 13.98 14.9453H11.175C10.9 14.9453 10.675 14.7203 10.675 14.4453C10.675 14.1703 10.9 13.9453 11.175 13.9453H13.48V1.94531H11.175C10.9 1.94531 10.675 1.72031 10.675 1.44531C10.675 1.17031 10.9 0.945312 11.175 0.945312ZM4.03248 8.50529H11.225C11.5 8.50529 11.725 8.28029 11.725 8.00529C11.725 7.73029 11.5 7.50529 11.225 7.50529H3.87501L6.17001 5.67029C6.38501 5.4953 6.42001 5.1853 6.25001 4.96529C6.07501 4.75029 5.76501 4.7153 5.54501 4.88529L1.72501 7.94029L5.54501 11.0003C5.63501 11.0753 5.75001 11.1103 5.85501 11.1103C6.00001 11.1103 6.14501 11.0453 6.24501 10.9203C6.41501 10.7053 6.38001 10.3903 6.16501 10.2153L4.03248 8.50529Z" fill="#1B1C1D"/>
</svg>
