<svg width="19" height="20" viewBox="0 0 19 20" fill="none" xmlns="http://www.w3.org/2000/svg">
<path fill-rule="evenodd" clip-rule="evenodd" d="M3.47606 2.96484H16.2005C16.5186 2.96484 16.7789 3.22512 16.7789 3.54323C16.7789 3.86134 16.5186 4.12161 16.2005 4.12161H3.47606C3.15795 4.12161 2.89768 3.86134 2.89768 3.54323C2.89768 3.22512 3.15795 2.96484 3.47606 2.96484ZM3.47606 7.15812H13.3838H13.3896C13.7077 7.15812 13.9679 7.4184 13.9679 7.73651C13.9679 8.05462 13.7077 8.31489 13.3896 8.31489H3.47606C3.15795 8.31489 2.89768 8.05462 2.89768 7.73651C2.89768 7.4184 3.15795 7.15812 3.47606 7.15812ZM10.995 11.4614H3.47606C3.15795 11.4614 2.89768 11.7216 2.89768 12.0397C2.89768 12.3579 3.15795 12.6181 3.47606 12.6181H10.995C11.3132 12.6181 11.5734 12.3579 11.5734 12.0397C11.5734 11.7216 11.3132 11.4614 10.995 11.4614ZM3.47032 15.7646H7.82555C8.14366 15.7646 8.40393 16.0249 8.40393 16.343C8.40393 16.6611 8.14366 16.9214 7.82555 16.9214H3.47032C3.15221 16.9214 2.89194 16.6611 2.89194 16.343C2.89194 16.0249 3.15221 15.7646 3.47032 15.7646Z" fill="#0070D2"/>
</svg>
