<svg width="40" height="40" viewBox="0 0 40 40" fill="none" xmlns="http://www.w3.org/2000/svg">
<path d="M20 0C8.97143 0 0 8.97143 0 20C0 31.0286 8.97143 40 20 40C31.0286 40 40 31.0286 40 20C40 8.97143 31.0286 0 20 0ZM29.5857 14.1857L18.6 28.8714C18.3571 29.2 17.9857 29.4 17.5857 29.4429C17.5429 29.4429 17.5 29.4429 17.4571 29.4429C17.1 29.4429 16.7429 29.3 16.4714 29.0571L10.0286 22.9857C9.45714 22.4429 9.42857 21.5429 9.97143 20.9714C10.5143 20.4 11.4143 20.3714 11.9857 20.9143L17.2714 25.8857L27.3 12.4857C27.7714 11.8571 28.6714 11.7286 29.3 12.2C29.9286 12.6714 30.0571 13.5714 29.5857 14.2V14.1857Z" fill="#0070D2"/>
</svg>
