<svg width="17" height="17" viewBox="0 0 17 17" fill="none" xmlns="http://www.w3.org/2000/svg">
<path fill-rule="evenodd" clip-rule="evenodd" d="M15.3512 13.3602L8.57485 1.44569C8.39613 1.1379 7.88977 1.1379 7.71105 1.44569L0.934678 13.3602C0.845319 13.5141 0.850283 13.7027 0.934678 13.8566C1.01907 14.0105 1.18786 14.1048 1.36161 14.1048H14.9144C15.0931 14.1048 15.2569 14.0105 15.3413 13.8566C15.4257 13.7027 15.4307 13.5141 15.3413 13.3602H15.3512ZM2.22045 13.107L8.14295 2.69175L14.0654 13.107H2.22045ZM8.6494 11.0318C8.58487 10.9623 8.50543 10.9077 8.41608 10.873C8.32672 10.8382 8.23736 10.8184 8.14304 10.8134C7.95439 10.8184 7.78064 10.8978 7.6466 11.0269C7.51752 11.1609 7.44306 11.3396 7.43809 11.5283C7.43809 11.6226 7.45299 11.712 7.48774 11.8013C7.52249 11.8857 7.57213 11.9651 7.63667 12.0346C7.70121 12.0992 7.78064 12.1538 7.86503 12.1885C7.94942 12.2233 8.04375 12.2432 8.13311 12.2432C8.31679 12.2382 8.49551 12.1588 8.62458 12.0297C8.75365 11.9006 8.83308 11.7269 8.84301 11.5382C8.84301 11.4439 8.82812 11.3496 8.79337 11.2602C8.75862 11.1708 8.70897 11.0914 8.63947 11.0269L8.6494 11.0318ZM7.43302 6.00798C7.43302 5.83423 7.48762 5.6704 7.58691 5.5314H7.59188C7.69116 5.3924 7.83513 5.29311 7.99895 5.24347C8.16278 5.21368 8.3266 5.2385 8.47553 5.31793C8.62447 5.39736 8.73865 5.52147 8.80815 5.6704C8.86276 5.77962 8.88261 5.90373 8.87268 6.02784C8.87268 6.23657 8.85845 6.4453 8.84389 6.65867L8.8429 6.67321C8.83297 6.82214 8.82304 6.97107 8.81808 7.12C8.81808 7.48737 8.78829 7.86466 8.7585 8.23202C8.75327 8.30184 8.74742 8.37104 8.7416 8.43984C8.73087 8.56674 8.72026 8.69228 8.71382 8.81782V9.35397C8.70886 9.49794 8.64929 9.63198 8.55 9.73126C8.45071 9.83055 8.31667 9.88516 8.17271 9.88516C8.0337 9.88516 7.89967 9.83055 7.79542 9.73623C7.69116 9.6419 7.63159 9.50787 7.62166 9.36886C7.59813 8.87932 7.57013 8.39425 7.5419 7.90517L7.53727 7.82494C7.51245 7.45758 7.49259 7.09022 7.47273 6.71789L7.43302 6.00798Z" fill="white"/>
</svg>
